<svg width="30" height="30" viewBox="0 0 30 30" fill="none" xmlns="http://www.w3.org/2000/svg">
<circle cx="15" cy="15" r="15" fill="#F95707"/>
<path d="M15.2592 20C9.45097 20 6.13804 16.2462 6 10H8.90943C9.005 14.5846 11.1499 16.5265 12.8488 16.9269V10H15.5884V13.954C17.2661 13.7838 19.0287 11.982 19.6234 10H22.3629C22.1388 11.0279 21.6922 12.0012 21.0509 12.8589C20.4096 13.7167 19.5874 14.4405 18.6359 14.985C19.698 15.4825 20.6362 16.1868 21.3885 17.0512C22.1408 17.9157 22.69 18.9207 23 20H19.9844C19.7061 19.0626 19.1405 18.2234 18.3585 17.5877C17.5765 16.952 16.6129 16.5481 15.5884 16.4264V20H15.2592Z" fill="white"/>
</svg>
