<svg width="30" height="30" viewBox="0 0 30 30" fill="none" xmlns="http://www.w3.org/2000/svg">
<circle cx="15" cy="15" r="15" fill="#F95707"/>
<path d="M20.5957 9H9.40425C8.95701 9 8.51415 9.0822 8.10098 9.2419C7.68781 9.4016 7.31243 9.63568 6.99629 9.93075C6.68014 10.2258 6.42943 10.5761 6.25849 10.9616C6.08754 11.3471 5.99971 11.7602 6 12.1773V17.8227C5.99971 18.2398 6.08754 18.6529 6.25849 19.0384C6.42943 19.4239 6.68014 19.7742 6.99629 20.0693C7.31243 20.3643 7.68781 20.5984 8.10098 20.7581C8.51415 20.9178 8.95701 21 9.40425 21H20.5957C21.043 21 21.4858 20.9178 21.899 20.7581C22.3122 20.5984 22.6876 20.3643 23.0037 20.0693C23.3199 19.7742 23.5706 19.4239 23.7415 19.0384C23.9125 18.6529 24.0003 18.2398 24 17.8227V12.1773C24.0003 11.7602 23.9125 11.3471 23.7415 10.9616C23.5706 10.5761 23.3199 10.2258 23.0037 9.93075C22.6876 9.63568 22.3122 9.4016 21.899 9.2419C21.4858 9.0822 21.043 9 20.5957 9ZM12.6285 17.5729V12.4271L17.3715 15L12.6285 17.5729Z" fill="white"/>
</svg>
