<?xml version="1.0"?>
<svg width="200" height="200" xmlns="http://www.w3.org/2000/svg" xmlns:svg="http://www.w3.org/2000/svg">
 <g class="layer">
  <title>Layer 1</title>
  <path d="m193.34,101.7l-0.2,3.23c-0.09,1.42 -0.37,2.48 -0.84,3.17c-0.47,0.69 -1.22,1.01 -2.24,0.94c-0.44,-0.03 -0.84,-0.14 -1.18,-0.33c-0.34,-0.19 -0.61,-0.45 -0.82,-0.79c-0.21,-0.33 -0.34,-0.74 -0.4,-1.22l-0.08,0c-0.11,0.49 -0.28,0.92 -0.51,1.3c-0.23,0.37 -0.54,0.65 -0.93,0.85c-0.39,0.19 -0.87,0.27 -1.45,0.24c-0.7,-0.05 -1.28,-0.25 -1.74,-0.61c-0.47,-0.35 -0.8,-0.83 -1.02,-1.44c-0.21,-0.6 -0.28,-1.31 -0.23,-2.12l0.24,-3.93l11.4,0.71zm-4.97,1.02l-0.14,2.19c-0.06,0.99 0.06,1.68 0.37,2.08c0.3,0.41 0.77,0.63 1.4,0.67c0.65,0.04 1.13,-0.16 1.44,-0.6c0.31,-0.43 0.5,-1.15 0.56,-2.14l0.13,-1.97l-3.76,-0.23zm-1.12,-0.07l-4.26,-0.26l-0.15,2.37c-0.06,1.01 0.09,1.74 0.46,2.19c0.37,0.44 0.9,0.69 1.58,0.73c0.43,0.03 0.8,-0.05 1.12,-0.22c0.32,-0.17 0.57,-0.46 0.76,-0.88c0.19,-0.41 0.31,-0.97 0.35,-1.67l0.14,-2.26z" fill="#105720" id="svg_1"/>
  <path d="m189.32,114.33l-5.28,-1.03c-0.1,-0.02 -0.24,-0.05 -0.4,-0.08c-0.16,-0.04 -0.33,-0.08 -0.51,-0.13c-0.17,-0.04 -0.35,-0.09 -0.51,-0.13c-0.17,-0.04 -0.3,-0.07 -0.41,-0.1l6.24,5.97l-0.31,1.57l-8.4,-1.64l0.23,-1.19l5.15,1.01c0.16,0.03 0.37,0.07 0.63,0.13c0.25,0.05 0.5,0.11 0.75,0.17c0.24,0.06 0.44,0.1 0.57,0.13l-6.22,-5.95l0.3,-1.58l8.41,1.64l-0.24,1.21z" fill="#105720" id="svg_2"/>
  <path d="m185.22,130.36l-7.09,-2.3l-0.38,1.16l-3.87,-1.25l0.39,-1.2l2.82,0.92l1.87,-5.77l-2.82,-0.92l0.39,-1.18l3.86,1.26l-0.21,0.64c0.5,0.67 1.08,1.29 1.75,1.84c0.66,0.56 1.39,1.05 2.18,1.49c0.8,0.43 1.63,0.79 2.48,1.08l-1.37,4.23zm-0.59,-1.52l0.63,-1.93c-0.71,-0.28 -1.41,-0.62 -2.11,-1.03c-0.69,-0.41 -1.33,-0.86 -1.92,-1.35c-0.59,-0.49 -1.08,-1 -1.46,-1.53l-1.26,3.86l6.12,1.98z" fill="#105720" id="svg_3"/>
  <path d="m182.45,137.53c-0.3,0.67 -0.71,1.17 -1.22,1.51c-0.51,0.34 -1.08,0.52 -1.73,0.53c-0.64,0.01 -1.31,-0.15 -2.02,-0.47l-0.73,-0.33l2.44,-5.39c-0.92,-0.4 -1.72,-0.49 -2.4,-0.26c-0.68,0.22 -1.2,0.73 -1.57,1.54c-0.22,0.49 -0.37,0.94 -0.45,1.37c-0.09,0.41 -0.13,0.87 -0.14,1.36l-1.04,-0.48c0,-0.47 0.05,-0.92 0.15,-1.34c0.09,-0.42 0.26,-0.9 0.5,-1.42c0.34,-0.75 0.79,-1.34 1.34,-1.76c0.56,-0.42 1.21,-0.64 1.94,-0.68c0.74,-0.04 1.53,0.13 2.39,0.53c0.84,0.38 1.5,0.85 1.99,1.4c0.48,0.57 0.78,1.18 0.88,1.85c0.09,0.66 -0.02,1.35 -0.33,2.04zm-0.96,-0.45c0.28,-0.63 0.3,-1.23 0.06,-1.79c-0.24,-0.56 -0.72,-1.05 -1.42,-1.45l-1.88,4.12c0.47,0.21 0.91,0.32 1.33,0.34c0.42,0.02 0.79,-0.06 1.11,-0.26c0.33,-0.2 0.59,-0.51 0.8,-0.96z" fill="#105720" id="svg_4"/>
  <path d="m172.04,147.4c-0.6,-0.36 -1.09,-0.76 -1.47,-1.2c-0.38,-0.44 -0.64,-0.91 -0.79,-1.4c-0.15,-0.49 -0.19,-1 -0.11,-1.52c0.08,-0.52 0.28,-1.04 0.6,-1.57c0.29,-0.49 0.65,-0.89 1.06,-1.2c0.42,-0.3 0.88,-0.5 1.39,-0.6c0.5,-0.1 1.04,-0.09 1.61,0.03c0.57,0.12 1.16,0.36 1.76,0.72c0.8,0.49 1.41,1.03 1.8,1.65c0.41,0.61 0.61,1.26 0.6,1.94c-0.01,0.69 -0.22,1.38 -0.65,2.08c-0.4,0.67 -0.9,1.17 -1.5,1.49c-0.6,0.32 -1.27,0.45 -2,0.39c-0.73,-0.06 -1.5,-0.33 -2.3,-0.81zm3.36,-5.58c-0.59,-0.36 -1.15,-0.59 -1.68,-0.69c-0.52,-0.1 -1,-0.06 -1.43,0.12c-0.44,0.18 -0.81,0.53 -1.11,1.04c-0.31,0.51 -0.44,1 -0.4,1.47c0.04,0.47 0.22,0.92 0.56,1.33c0.34,0.42 0.81,0.81 1.4,1.16c0.58,0.35 1.13,0.58 1.65,0.68c0.52,0.1 1,0.06 1.43,-0.13c0.42,-0.19 0.79,-0.54 1.1,-1.06c0.46,-0.76 0.55,-1.47 0.26,-2.13c-0.3,-0.66 -0.89,-1.26 -1.78,-1.79z" fill="#105720" id="svg_5"/>
  <path d="m163.28,158.59c-0.53,-0.46 -0.95,-0.93 -1.25,-1.43c-0.3,-0.5 -0.49,-1 -0.56,-1.51c-0.06,-0.5 -0.01,-1.01 0.15,-1.52c0.16,-0.49 0.44,-0.97 0.84,-1.44c0.37,-0.44 0.79,-0.78 1.25,-1.01c0.46,-0.23 0.95,-0.36 1.47,-0.37c0.51,-0.02 1.04,0.08 1.58,0.29c0.54,0.21 1.08,0.55 1.62,1.01c0.71,0.6 1.21,1.24 1.51,1.91c0.3,0.67 0.39,1.34 0.27,2.01c-0.12,0.68 -0.45,1.33 -0.98,1.96c-0.5,0.59 -1.08,1 -1.72,1.21c-0.65,0.23 -1.33,0.24 -2.04,0.06c-0.72,-0.17 -1.43,-0.56 -2.14,-1.17zm4.23,-4.96c-0.53,-0.45 -1.04,-0.76 -1.54,-0.95c-0.5,-0.19 -0.98,-0.23 -1.44,-0.12c-0.46,0.11 -0.88,0.39 -1.27,0.85c-0.38,0.45 -0.59,0.91 -0.63,1.38c-0.04,0.47 0.07,0.94 0.34,1.41c0.27,0.47 0.66,0.92 1.19,1.37c0.51,0.44 1.02,0.75 1.52,0.93c0.5,0.19 0.97,0.23 1.42,0.11c0.46,-0.11 0.88,-0.4 1.27,-0.86c0.58,-0.68 0.78,-1.37 0.6,-2.06c-0.18,-0.7 -0.67,-1.38 -1.46,-2.06z" fill="#105720" id="svg_6"/>
  <path d="m157.43,169.88l-1.08,0.93l0.11,-5.54l-5.91,-0.76l1.16,-0.99l5.77,0.76l-2.82,-3.3l0.99,-0.85l5.57,6.5l-0.99,0.85l-2.7,-3.15l-0.1,5.55z" fill="#105720" id="svg_7"/>
  <path d="m145.32,173.41c-0.4,-0.59 -0.67,-1.16 -0.83,-1.72c-0.16,-0.56 -0.21,-1.09 -0.13,-1.6c0.07,-0.5 0.25,-0.98 0.54,-1.42c0.29,-0.44 0.69,-0.83 1.2,-1.17c0.47,-0.33 0.96,-0.54 1.47,-0.64c0.5,-0.1 1.01,-0.09 1.51,0.03c0.5,0.12 0.98,0.35 1.45,0.7c0.47,0.35 0.9,0.82 1.29,1.4c0.53,0.78 0.84,1.53 0.95,2.25c0.11,0.73 0.01,1.4 -0.28,2.01c-0.3,0.62 -0.78,1.16 -1.46,1.62c-0.65,0.44 -1.31,0.68 -1.99,0.72c-0.68,0.04 -1.34,-0.12 -1.98,-0.49c-0.64,-0.36 -1.22,-0.92 -1.74,-1.69zm5.39,-3.66c-0.39,-0.57 -0.8,-1.01 -1.23,-1.33c-0.44,-0.32 -0.89,-0.48 -1.36,-0.5c-0.47,-0.01 -0.95,0.15 -1.44,0.49c-0.5,0.33 -0.82,0.72 -0.98,1.16c-0.17,0.44 -0.18,0.93 -0.05,1.45c0.13,0.52 0.39,1.06 0.78,1.63c0.38,0.57 0.79,1 1.22,1.31c0.43,0.31 0.88,0.47 1.34,0.48c0.47,0.01 0.95,-0.15 1.45,-0.49c0.74,-0.5 1.12,-1.11 1.13,-1.83c0.01,-0.72 -0.28,-1.51 -0.86,-2.37z" fill="#105720" id="svg_8"/>
  <path d="m136.84,182.74l-3.85,-7.64l1.05,-0.53l2.51,4.98c0.1,0.2 0.2,0.41 0.29,0.63c0.1,0.22 0.19,0.44 0.28,0.66l0.04,-0.02l-0.61,-7.52l0.99,-0.5l5.62,5l0.04,-0.02c-0.12,-0.21 -0.24,-0.42 -0.35,-0.63c-0.11,-0.21 -0.23,-0.43 -0.35,-0.66l-2.49,-4.94l1.06,-0.53l3.85,7.65l-1.56,0.78l-5.61,-5l0.64,7.51l-1.55,0.78z" fill="#105720" id="svg_9"/>
  <path d="m126.64,186.54l-2.83,-8.08l1.23,-0.43l2.46,7.02l4.31,-1.5l-2.46,-7.03l1.23,-0.43l2.83,8.08l-6.77,2.37z" fill="#105720" id="svg_10"/>
  <path d="m120.23,188.33c-0.99,0.23 -1.78,0.18 -2.37,-0.15c-0.58,-0.34 -0.99,-1 -1.22,-1.98l-1.3,-5.67l0.92,-0.21l0.53,1.18l0.06,-0.02c0.16,-0.36 0.34,-0.67 0.55,-0.94c0.21,-0.26 0.47,-0.48 0.78,-0.66c0.3,-0.18 0.7,-0.33 1.18,-0.44c0.51,-0.12 0.98,-0.13 1.42,-0.04c0.43,0.08 0.8,0.28 1.11,0.59c0.31,0.31 0.53,0.74 0.65,1.29c0.19,0.83 0.01,1.55 -0.55,2.15c-0.55,0.6 -1.5,1.07 -2.84,1.42l-1.43,0.4l0.12,0.51c0.17,0.72 0.44,1.19 0.82,1.41c0.37,0.21 0.84,0.26 1.4,0.13c0.44,-0.1 0.84,-0.26 1.21,-0.48c0.37,-0.22 0.71,-0.46 1.02,-0.71l0.61,0.87c-0.33,0.28 -0.72,0.54 -1.18,0.79c-0.45,0.25 -0.95,0.44 -1.49,0.56zm-2.7,-3.98l1.26,-0.34c1.03,-0.28 1.73,-0.62 2.09,-1.02c0.35,-0.4 0.47,-0.87 0.34,-1.42c-0.11,-0.48 -0.33,-0.8 -0.68,-0.96c-0.34,-0.16 -0.75,-0.18 -1.23,-0.08c-0.74,0.18 -1.29,0.52 -1.67,1.04c-0.38,0.52 -0.47,1.19 -0.28,2.02l0.17,0.76z" fill="#105720" id="svg_11"/>
  <path d="m112.62,189.63l-0.39,-3.57l-4.74,0.51l0.39,3.58l-1.29,0.14l-0.93,-8.52l1.29,-0.14l0.42,3.85l4.74,-0.52l-0.41,-3.84l1.3,-0.14l0.92,8.51l-1.3,0.14z" fill="#105720" id="svg_12"/>
  <path d="m100.68,190.5l0.13,-5.38c0,-0.1 0,-0.24 0.01,-0.4c0.01,-0.16 0.02,-0.34 0.04,-0.53c0.01,-0.18 0.03,-0.35 0.04,-0.53c0.01,-0.16 0.02,-0.3 0.03,-0.41l-4.83,7.15l-1.6,-0.04l0.2,-8.56l1.21,0.03l-0.12,5.25c0,0.17 -0.01,0.38 -0.02,0.64c-0.01,0.26 -0.03,0.51 -0.04,0.76c-0.02,0.26 -0.03,0.46 -0.04,0.6l4.82,-7.14l1.6,0.03l-0.2,8.56l-1.23,-0.03z" fill="#105720" id="svg_13"/>
  <path d="m89,189.85l0.82,-5.32c0.02,-0.1 0.04,-0.23 0.07,-0.4c0.03,-0.16 0.06,-0.33 0.1,-0.51c0.04,-0.18 0.08,-0.35 0.12,-0.52c0.03,-0.16 0.06,-0.3 0.08,-0.41l-5.73,6.46l-1.57,-0.25l1.31,-8.46l1.2,0.19l-0.81,5.19c-0.02,0.16 -0.06,0.37 -0.1,0.63c-0.05,0.25 -0.09,0.51 -0.14,0.75c-0.05,0.25 -0.09,0.45 -0.12,0.58l5.72,-6.45l1.58,0.25l-1.31,8.46l-1.22,-0.19z" fill="#105720" id="svg_14"/>
  <path d="m76.64,183.11l-3.51,2.22l-0.72,-0.79l2.98,-1.93l-1.28,-3.32l1.05,-0.22l1.55,3.84l-0.07,0.2zm-2.95,-0.96l-3.55,2.21l-0.71,-0.79l2.98,-1.93l-1.28,-3.32l1.04,-0.23l1.58,3.86l-0.06,0.2z" fill="#105720" id="svg_15"/>
  <path d="m63.63,184.89c0.48,0.21 0.95,0.36 1.4,0.44c0.46,0.07 0.88,0.11 1.28,0.1l0.03,1.25c-0.49,0.01 -1.01,-0.05 -1.56,-0.18c-0.56,-0.12 -1.11,-0.31 -1.65,-0.55c-0.83,-0.38 -1.49,-0.83 -1.99,-1.37c-0.5,-0.53 -0.85,-1.12 -1.04,-1.77c-0.19,-0.65 -0.24,-1.33 -0.16,-2.05c0.09,-0.72 0.31,-1.46 0.65,-2.22c0.51,-1.12 1.14,-2.01 1.88,-2.67c0.74,-0.65 1.59,-1.04 2.54,-1.15c0.94,-0.12 1.97,0.08 3.09,0.59c0.6,0.27 1.1,0.54 1.49,0.8c0.38,0.26 0.74,0.55 1.08,0.87l-0.48,1.05c-0.35,-0.29 -0.72,-0.57 -1.1,-0.85c-0.38,-0.27 -0.81,-0.51 -1.29,-0.73c-0.63,-0.29 -1.23,-0.45 -1.79,-0.5c-0.56,-0.04 -1.08,0.03 -1.57,0.23c-0.48,0.19 -0.92,0.49 -1.31,0.91c-0.4,0.41 -0.75,0.94 -1.05,1.56l5.14,2.34l-0.49,1.07l-5.13,-2.33c-0.2,0.57 -0.31,1.11 -0.32,1.62c-0.01,0.53 0.07,1.01 0.24,1.45c0.18,0.45 0.44,0.85 0.8,1.2c0.35,0.35 0.78,0.65 1.31,0.89z" fill="#105720" id="svg_16"/>
  <path d="m53.32,167.45l1.37,0.84l1.46,7.69l3.02,-4.95l1.14,0.69l-5.95,9.75l-1.14,-0.69l2.88,-4.72l-7.24,2.05l-1.3,-0.79l7.2,-2.1l-1.44,-7.77z" fill="#105720" id="svg_17"/>
  <path d="m40.94,164.88c0.55,-0.69 1.15,-1.24 1.78,-1.66c0.62,-0.41 1.27,-0.68 1.95,-0.81c0.66,-0.12 1.33,-0.08 2.02,0.11c0.68,0.19 1.35,0.56 2.02,1.1c0.68,0.56 1.2,1.16 1.53,1.8c0.33,0.63 0.5,1.29 0.51,1.97c0.01,0.67 -0.13,1.36 -0.42,2.06c-0.29,0.7 -0.71,1.39 -1.27,2.07c-0.74,0.9 -1.53,1.58 -2.39,2.01c-0.85,0.44 -1.74,0.61 -2.65,0.49c-0.92,-0.11 -1.84,-0.55 -2.75,-1.29c-0.88,-0.72 -1.46,-1.51 -1.75,-2.37c-0.3,-0.86 -0.32,-1.76 -0.07,-2.7c0.24,-0.93 0.73,-1.86 1.49,-2.78zm7.05,5.74c0.61,-0.75 1.03,-1.49 1.26,-2.21c0.24,-0.72 0.25,-1.41 0.06,-2.07c-0.2,-0.66 -0.64,-1.27 -1.33,-1.83c-0.68,-0.56 -1.37,-0.86 -2.04,-0.92c-0.69,-0.06 -1.36,0.1 -2.02,0.48c-0.65,0.38 -1.29,0.94 -1.9,1.69c-0.93,1.15 -1.42,2.23 -1.46,3.27c-0.05,1.03 0.43,1.96 1.45,2.79c0.68,0.56 1.37,0.87 2.05,0.94c0.69,0.06 1.36,-0.08 2.02,-0.45c0.66,-0.37 1.29,-0.93 1.91,-1.69z" fill="#105720" id="svg_18"/>
  <path d="m37.18,152.62l0.9,0.97l-7.56,6.93l2.5,2.73c0.48,-0.34 0.99,-0.69 1.51,-1.06c0.52,-0.37 1.05,-0.73 1.57,-1.09c0.53,-0.36 1.03,-0.7 1.5,-1.02c0.48,-0.31 0.9,-0.58 1.29,-0.81c0.62,-0.39 1.19,-0.69 1.7,-0.88c0.51,-0.2 0.98,-0.26 1.4,-0.2c0.42,0.06 0.81,0.29 1.17,0.69c0.13,0.14 0.24,0.28 0.33,0.44c0.1,0.16 0.17,0.3 0.22,0.44l-0.82,0.75c-0.04,-0.12 -0.1,-0.25 -0.17,-0.38c-0.08,-0.14 -0.17,-0.27 -0.28,-0.39c-0.23,-0.24 -0.5,-0.34 -0.81,-0.3c-0.33,0.03 -0.68,0.15 -1.05,0.34c-0.38,0.19 -0.75,0.4 -1.12,0.63c-0.31,0.19 -0.69,0.43 -1.15,0.73c-0.46,0.3 -0.98,0.65 -1.55,1.04c-0.58,0.4 -1.19,0.82 -1.84,1.28c-0.66,0.45 -1.33,0.92 -2.01,1.4l-4.15,-4.53l8.42,-7.71z" fill="#105720" id="svg_19"/>
  <path d="m24.66,144.93c0.73,-0.49 1.46,-0.84 2.18,-1.06c0.73,-0.22 1.43,-0.29 2.11,-0.21c0.67,0.07 1.3,0.3 1.9,0.68c0.59,0.39 1.13,0.94 1.61,1.65c0.5,0.73 0.81,1.45 0.95,2.16c0.13,0.7 0.1,1.38 -0.09,2.03c-0.19,0.65 -0.52,1.27 -1,1.86c-0.48,0.58 -1.09,1.12 -1.82,1.61c-0.96,0.65 -1.92,1.06 -2.87,1.23c-0.94,0.17 -1.83,0.07 -2.68,-0.3c-0.84,-0.38 -1.59,-1.06 -2.25,-2.04c-0.63,-0.94 -0.96,-1.86 -0.99,-2.78c-0.03,-0.91 0.21,-1.78 0.71,-2.6c0.51,-0.82 1.25,-1.56 2.24,-2.23zm5.08,7.55c0.8,-0.54 1.42,-1.13 1.85,-1.75c0.44,-0.63 0.65,-1.28 0.66,-1.97c0,-0.69 -0.25,-1.4 -0.74,-2.13c-0.49,-0.73 -1.06,-1.23 -1.69,-1.48c-0.64,-0.25 -1.33,-0.3 -2.06,-0.12c-0.74,0.16 -1.51,0.52 -2.32,1.06c-1.22,0.83 -2,1.73 -2.34,2.7c-0.35,0.98 -0.16,2.01 0.57,3.09c0.49,0.74 1.06,1.24 1.69,1.5c0.64,0.26 1.32,0.31 2.06,0.15c0.74,-0.15 1.51,-0.51 2.32,-1.05z" fill="#105720" id="svg_20"/>
  <path d="m26.03,135.1l-7.59,7.7l0.03,0.06c0.18,-0.11 0.41,-0.23 0.68,-0.38c0.28,-0.14 0.58,-0.29 0.9,-0.45c0.33,-0.16 0.66,-0.32 1,-0.48l6.56,-3.01l0.51,1.13l-10.38,4.76l-0.82,-1.79l7.13,-7.25l-0.02,-0.05l-10.17,0.62l-0.81,-1.77l10.38,-4.77l0.55,1.2l-6.65,3.05c-0.31,0.14 -0.62,0.27 -0.93,0.41c-0.32,0.13 -0.62,0.25 -0.9,0.36c-0.28,0.12 -0.53,0.22 -0.74,0.3l0.03,0.05l10.79,-0.68l0.45,0.99z" fill="#105720" id="svg_21"/>
  <path d="m16.71,121.7l3.83,1.66l-0.26,1.03l-3.29,-1.35l-1.99,2.93l-0.77,-0.71l2.28,-3.5l0.2,-0.06zm0.9,3l3.82,1.64l-0.26,1.03l-3.29,-1.34l-1.99,2.93l-0.77,-0.72l2.29,-3.48l0.2,-0.06z" fill="#105720" id="svg_22"/>
  <path d="m6.66,98.68l0.18,-3.23c0.09,-1.42 0.36,-2.48 0.83,-3.17c0.47,-0.7 1.21,-1.01 2.24,-0.95c0.44,0.02 0.83,0.13 1.18,0.32c0.34,0.19 0.61,0.45 0.82,0.79c0.21,0.33 0.35,0.74 0.41,1.22l0.07,0c0.11,-0.49 0.28,-0.93 0.51,-1.3c0.23,-0.37 0.54,-0.66 0.93,-0.85c0.38,-0.2 0.87,-0.28 1.44,-0.25c0.7,0.04 1.29,0.24 1.75,0.59c0.47,0.36 0.81,0.83 1.02,1.44c0.21,0.61 0.29,1.32 0.25,2.13l-0.23,3.92l-11.4,-0.66zm4.96,-1.04l0.13,-2.19c0.06,-0.99 -0.07,-1.68 -0.37,-2.08c-0.31,-0.41 -0.77,-0.63 -1.4,-0.66c-0.65,-0.04 -1.13,0.16 -1.45,0.6c-0.31,0.44 -0.49,1.15 -0.55,2.14l-0.11,1.97l3.75,0.22zm1.12,0.06l4.27,0.25l0.13,-2.37c0.06,-1.01 -0.09,-1.74 -0.46,-2.19c-0.38,-0.44 -0.91,-0.68 -1.58,-0.72c-0.43,-0.03 -0.81,0.05 -1.13,0.22c-0.31,0.17 -0.57,0.46 -0.75,0.88c-0.19,0.41 -0.31,0.97 -0.35,1.68l-0.13,2.25z" fill="#105720" id="svg_23"/>
  <path d="m10.56,86.42l5.29,0.99c0.11,0.01 0.24,0.04 0.4,0.08c0.16,0.03 0.33,0.07 0.51,0.12c0.18,0.04 0.35,0.08 0.52,0.12c0.16,0.04 0.3,0.07 0.4,0.1l-6.28,-5.92l0.3,-1.57l8.41,1.57l-0.22,1.19l-5.16,-0.96c-0.16,-0.03 -0.37,-0.07 -0.63,-0.12c-0.25,-0.06 -0.5,-0.11 -0.75,-0.17c-0.24,-0.06 -0.44,-0.1 -0.58,-0.13l6.28,5.91l-0.3,1.57l-8.41,-1.57l0.22,-1.21z" fill="#105720" id="svg_24"/>
  <path d="m14.61,70.12l7.11,2.28l0.37,-1.17l3.87,1.24l-0.38,1.2l-2.82,-0.91l-1.85,5.77l2.82,0.91l-0.38,1.18l-3.87,-1.24l0.21,-0.64c-0.5,-0.67 -1.08,-1.28 -1.75,-1.84c-0.67,-0.55 -1.4,-1.04 -2.2,-1.47c-0.79,-0.43 -1.62,-0.79 -2.48,-1.08l1.35,-4.23zm0.6,1.51l-0.62,1.93c0.71,0.28 1.41,0.62 2.11,1.03c0.7,0.41 1.34,0.85 1.93,1.34c0.59,0.49 1.08,1 1.47,1.52l1.23,-3.86l-6.12,-1.96z" fill="#105720" id="svg_25"/>
  <path d="m17.32,62.98c0.3,-0.66 0.71,-1.17 1.22,-1.51c0.5,-0.34 1.08,-0.52 1.72,-0.53c0.64,-0.02 1.32,0.14 2.03,0.45l0.73,0.34l-2.42,5.39c0.92,0.4 1.72,0.48 2.4,0.26c0.68,-0.23 1.2,-0.74 1.56,-1.55c0.22,-0.49 0.37,-0.95 0.45,-1.37c0.08,-0.42 0.13,-0.87 0.13,-1.36l1.04,0.47c0,0.47 -0.05,0.92 -0.14,1.35c-0.09,0.42 -0.26,0.89 -0.49,1.42c-0.34,0.75 -0.79,1.34 -1.34,1.76c-0.56,0.42 -1.21,0.65 -1.94,0.69c-0.73,0.04 -1.53,-0.13 -2.39,-0.52c-0.84,-0.38 -1.5,-0.84 -1.99,-1.4c-0.49,-0.56 -0.78,-1.18 -0.89,-1.84c-0.1,-0.67 0.01,-1.35 0.32,-2.05zm0.97,0.45c-0.29,0.64 -0.31,1.23 -0.06,1.79c0.24,0.56 0.72,1.05 1.43,1.45l1.86,-4.13c-0.47,-0.21 -0.91,-0.32 -1.33,-0.33c-0.42,-0.02 -0.79,0.06 -1.11,0.26c-0.33,0.2 -0.59,0.52 -0.79,0.96z" fill="#105720" id="svg_26"/>
  <path d="m27.76,52.9c0.6,0.36 1.1,0.76 1.48,1.2c0.38,0.44 0.64,0.91 0.8,1.4c0.15,0.49 0.18,0.99 0.11,1.52c-0.08,0.52 -0.28,1.04 -0.59,1.57c-0.29,0.49 -0.65,0.89 -1.06,1.2c-0.42,0.31 -0.88,0.51 -1.39,0.61c-0.5,0.11 -1.04,0.1 -1.61,-0.02c-0.57,-0.12 -1.16,-0.36 -1.76,-0.72c-0.81,-0.48 -1.41,-1.03 -1.81,-1.64c-0.41,-0.61 -0.61,-1.25 -0.6,-1.94c0,-0.69 0.22,-1.38 0.63,-2.08c0.4,-0.67 0.9,-1.17 1.5,-1.49c0.6,-0.33 1.27,-0.46 2,-0.4c0.73,0.05 1.5,0.32 2.3,0.79zm-3.33,5.6c0.59,0.35 1.15,0.58 1.67,0.68c0.53,0.11 1.01,0.06 1.44,-0.12c0.43,-0.19 0.8,-0.54 1.11,-1.05c0.3,-0.51 0.43,-1 0.39,-1.47c-0.04,-0.47 -0.23,-0.91 -0.57,-1.33c-0.34,-0.42 -0.81,-0.8 -1.4,-1.15c-0.58,-0.35 -1.14,-0.57 -1.65,-0.67c-0.53,-0.1 -1,-0.06 -1.43,0.13c-0.43,0.19 -0.79,0.54 -1.1,1.06c-0.46,0.77 -0.54,1.48 -0.25,2.14c0.3,0.66 0.89,1.25 1.79,1.78z" fill="#105720" id="svg_27"/>
  <path d="m36.13,42.06c0.54,0.45 0.96,0.92 1.27,1.42c0.31,0.49 0.49,0.99 0.56,1.5c0.07,0.51 0.03,1.02 -0.13,1.52c-0.16,0.5 -0.44,0.98 -0.83,1.45c-0.37,0.44 -0.78,0.78 -1.24,1.02c-0.46,0.24 -0.95,0.36 -1.47,0.39c-0.51,0.02 -1.04,-0.08 -1.58,-0.29c-0.55,-0.21 -1.09,-0.54 -1.63,-0.99c-0.71,-0.6 -1.22,-1.24 -1.52,-1.9c-0.3,-0.67 -0.4,-1.34 -0.28,-2.02c0.11,-0.67 0.43,-1.33 0.96,-1.95c0.5,-0.6 1.07,-1.01 1.71,-1.24c0.65,-0.22 1.33,-0.25 2.04,-0.07c0.72,0.17 1.43,0.56 2.14,1.16zm-4.18,4.99c0.52,0.44 1.04,0.75 1.54,0.94c0.51,0.19 0.99,0.22 1.44,0.11c0.46,-0.12 0.88,-0.4 1.26,-0.86c0.39,-0.46 0.59,-0.92 0.63,-1.39c0.03,-0.47 -0.09,-0.94 -0.35,-1.4c-0.27,-0.47 -0.67,-0.92 -1.2,-1.36c-0.52,-0.44 -1.03,-0.75 -1.53,-0.93c-0.5,-0.18 -0.97,-0.21 -1.42,-0.1c-0.46,0.12 -0.88,0.41 -1.26,0.87c-0.58,0.69 -0.77,1.38 -0.59,2.07c0.19,0.7 0.68,1.38 1.48,2.05z" fill="#105720" id="svg_28"/>
  <path d="m42.11,30.49l1.08,-0.93l-0.09,5.54l5.91,0.74l-1.15,1l-5.78,-0.74l2.84,3.28l-0.99,0.86l-5.59,-6.48l0.98,-0.86l2.72,3.15l0.07,-5.56z" fill="#105720" id="svg_29"/>
  <path d="m53.91,27.09c0.4,0.58 0.68,1.14 0.85,1.7c0.16,0.56 0.21,1.09 0.14,1.6c-0.07,0.51 -0.25,0.99 -0.53,1.43c-0.29,0.44 -0.69,0.83 -1.19,1.18c-0.47,0.33 -0.96,0.54 -1.47,0.65c-0.51,0.11 -1.01,0.1 -1.51,-0.02c-0.5,-0.11 -0.99,-0.35 -1.46,-0.69c-0.47,-0.35 -0.9,-0.81 -1.3,-1.39c-0.53,-0.77 -0.85,-1.52 -0.96,-2.24c-0.11,-0.73 -0.03,-1.4 0.26,-2.02c0.29,-0.62 0.78,-1.16 1.45,-1.63c0.64,-0.44 1.3,-0.69 1.98,-0.73c0.68,-0.05 1.35,0.11 1.99,0.47c0.64,0.36 1.22,0.92 1.75,1.69zm-5.36,3.69c0.39,0.57 0.8,1.01 1.24,1.32c0.43,0.32 0.89,0.48 1.36,0.49c0.47,0.01 0.95,-0.15 1.44,-0.49c0.49,-0.34 0.81,-0.73 0.97,-1.17c0.16,-0.45 0.17,-0.93 0.04,-1.45c-0.14,-0.52 -0.4,-1.06 -0.79,-1.63c-0.39,-0.56 -0.8,-1 -1.23,-1.3c-0.43,-0.31 -0.88,-0.47 -1.35,-0.47c-0.47,-0.01 -0.95,0.16 -1.45,0.5c-0.73,0.51 -1.1,1.12 -1.11,1.84c-0.01,0.72 0.29,1.51 0.88,2.36z" fill="#105720" id="svg_30"/>
  <path d="m62.74,17.45l3.89,7.63l-1.05,0.53l-2.53,-4.97c-0.1,-0.21 -0.2,-0.41 -0.3,-0.63c-0.09,-0.22 -0.19,-0.44 -0.28,-0.66l-0.04,0.02l0.64,7.52l-0.98,0.5l-5.65,-4.97l-0.04,0.02c0.13,0.2 0.24,0.41 0.36,0.62c0.11,0.21 0.23,0.43 0.35,0.66l2.5,4.93l-1.05,0.53l-3.88,-7.63l1.55,-0.79l5.64,4.99l-0.67,-7.52l1.54,-0.78z" fill="#105720" id="svg_31"/>
  <path d="m72.38,13.78l2.89,8.06l-1.23,0.44l-2.51,-7.01l-4.3,1.54l2.51,7.01l-1.22,0.44l-2.89,-8.06l6.75,-2.42z" fill="#105720" id="svg_32"/>
  <path d="m78.91,11.86c1,-0.23 1.79,-0.18 2.37,0.15c0.59,0.34 1,0.99 1.23,1.97l1.33,5.67l-0.92,0.21l-0.54,-1.17l-0.06,0.01c-0.16,0.36 -0.34,0.67 -0.55,0.94c-0.2,0.26 -0.46,0.49 -0.77,0.67c-0.31,0.18 -0.7,0.33 -1.18,0.44c-0.51,0.12 -0.98,0.14 -1.42,0.05c-0.43,-0.08 -0.8,-0.28 -1.12,-0.59c-0.3,-0.3 -0.52,-0.73 -0.65,-1.29c-0.2,-0.83 -0.02,-1.54 0.54,-2.15c0.55,-0.6 1.5,-1.08 2.84,-1.43l1.42,-0.4l-0.12,-0.51c-0.17,-0.72 -0.44,-1.19 -0.82,-1.41c-0.37,-0.21 -0.84,-0.25 -1.41,-0.12c-0.43,0.1 -0.83,0.26 -1.2,0.48c-0.36,0.22 -0.7,0.46 -1.02,0.71l-0.61,-0.86c0.33,-0.28 0.72,-0.55 1.17,-0.8c0.46,-0.25 0.96,-0.44 1.49,-0.57zm2.72,3.97l-1.26,0.35c-1.03,0.29 -1.73,0.63 -2.08,1.03c-0.36,0.4 -0.47,0.87 -0.34,1.42c0.11,0.48 0.34,0.79 0.68,0.96c0.34,0.16 0.75,0.18 1.23,0.07c0.74,-0.18 1.3,-0.52 1.67,-1.04c0.38,-0.53 0.47,-1.2 0.28,-2.02l-0.18,-0.77z" fill="#105720" id="svg_33"/>
  <path d="m86.61,10.46l0.4,3.57l4.74,-0.53l-0.4,-3.57l1.29,-0.14l0.95,8.5l-1.29,0.15l-0.43,-3.84l-4.74,0.53l0.43,3.84l-1.3,0.15l-0.95,-8.51l1.3,-0.15z" fill="#105720" id="svg_34"/>
  <path d="m98.43,9.49l-0.1,5.38c0,0.1 -0.01,0.24 -0.02,0.4c-0.01,0.17 -0.02,0.34 -0.03,0.53c-0.01,0.18 -0.03,0.36 -0.04,0.53c-0.01,0.16 -0.02,0.3 -0.03,0.41l4.81,-7.16l1.59,0.03l-0.16,8.56l-1.22,-0.03l0.11,-5.25c0,-0.16 0.01,-0.38 0.02,-0.64c0.01,-0.26 0.02,-0.51 0.03,-0.76c0.02,-0.26 0.03,-0.45 0.04,-0.59l-4.8,7.15l-1.6,-0.03l0.17,-8.56l1.23,0.03z" fill="#105720" id="svg_35"/>
  <path d="m110.54,10.09l-0.81,5.32c-0.01,0.1 -0.04,0.24 -0.07,0.4c-0.03,0.16 -0.06,0.33 -0.1,0.51c-0.04,0.18 -0.07,0.36 -0.11,0.52c-0.03,0.17 -0.06,0.3 -0.08,0.41l5.7,-6.48l1.58,0.24l-1.28,8.47l-1.2,-0.18l0.78,-5.19c0.03,-0.17 0.06,-0.38 0.11,-0.64c0.04,-0.25 0.09,-0.5 0.13,-0.75c0.05,-0.25 0.09,-0.44 0.12,-0.58l-5.69,6.47l-1.58,-0.24l1.28,-8.47l1.22,0.19z" fill="#105720" id="svg_36"/>
  <path d="m122.94,16.76l3.5,-2.23l0.73,0.79l-2.98,1.94l1.29,3.31l-1.04,0.23l-1.56,-3.84l0.06,-0.2zm2.96,0.95l3.54,-2.22l0.71,0.79l-2.97,1.94l1.29,3.31l-1.04,0.23l-1.59,-3.85l0.06,-0.2z" fill="#105720" id="svg_37"/>
  <path d="m135.93,14.92c-0.48,-0.21 -0.95,-0.36 -1.41,-0.43c-0.45,-0.07 -0.88,-0.11 -1.27,-0.1l-0.04,-1.25c0.49,-0.01 1.01,0.05 1.57,0.17c0.55,0.12 1.1,0.31 1.64,0.55c0.83,0.38 1.5,0.83 1.99,1.36c0.51,0.53 0.86,1.12 1.05,1.77c0.2,0.64 0.25,1.33 0.17,2.05c-0.09,0.72 -0.3,1.46 -0.64,2.21c-0.5,1.13 -1.13,2.02 -1.87,2.68c-0.74,0.66 -1.59,1.05 -2.54,1.17c-0.94,0.11 -1.97,-0.08 -3.09,-0.58c-0.6,-0.27 -1.1,-0.54 -1.49,-0.8c-0.38,-0.25 -0.75,-0.54 -1.08,-0.86l0.47,-1.06c0.36,0.29 0.73,0.58 1.1,0.85c0.39,0.27 0.82,0.51 1.3,0.73c0.63,0.28 1.23,0.45 1.79,0.49c0.56,0.04 1.08,-0.04 1.57,-0.23c0.48,-0.2 0.91,-0.5 1.31,-0.92c0.4,-0.42 0.75,-0.94 1.04,-1.57l-5.15,-2.32l0.48,-1.07l5.14,2.32c0.21,-0.57 0.31,-1.12 0.32,-1.63c0.01,-0.52 -0.07,-1.01 -0.25,-1.45c-0.17,-0.45 -0.44,-0.84 -0.8,-1.19c-0.35,-0.35 -0.79,-0.65 -1.31,-0.89z" fill="#105720" id="svg_38"/>
  <path d="m146.09,32.17l-1.37,-0.83l-1.49,-7.68l-3,4.95l-1.14,-0.68l5.92,-9.77l1.13,0.68l-2.86,4.74l7.24,-2.08l1.3,0.79l-7.19,2.12l1.46,7.76z" fill="#105720" id="svg_39"/>
  <path d="m158.59,34.71c-0.55,0.69 -1.14,1.24 -1.77,1.66c-0.63,0.42 -1.27,0.69 -1.94,0.82c-0.67,0.13 -1.34,0.09 -2.03,-0.1c-0.68,-0.19 -1.35,-0.55 -2.02,-1.09c-0.69,-0.56 -1.2,-1.16 -1.54,-1.79c-0.33,-0.63 -0.51,-1.29 -0.52,-1.97c-0.01,-0.68 0.13,-1.37 0.41,-2.07c0.29,-0.69 0.71,-1.39 1.27,-2.07c0.73,-0.91 1.52,-1.58 2.38,-2.02c0.85,-0.45 1.73,-0.61 2.65,-0.5c0.92,0.11 1.84,0.54 2.76,1.28c0.88,0.72 1.46,1.5 1.76,2.36c0.29,0.87 0.32,1.77 0.08,2.7c-0.24,0.93 -0.74,1.86 -1.49,2.79zm-7.06,-5.72c-0.61,0.76 -1.03,1.49 -1.26,2.22c-0.24,0.72 -0.25,1.41 -0.05,2.07c0.2,0.66 0.65,1.27 1.33,1.82c0.69,0.56 1.37,0.86 2.05,0.92c0.68,0.06 1.36,-0.11 2.01,-0.49c0.66,-0.38 1.29,-0.94 1.9,-1.7c0.92,-1.14 1.41,-2.23 1.45,-3.27c0.04,-1.03 -0.44,-1.96 -1.46,-2.78c-0.69,-0.56 -1.37,-0.87 -2.06,-0.94c-0.68,-0.06 -1.36,0.09 -2.02,0.46c-0.65,0.37 -1.28,0.93 -1.89,1.69z" fill="#105720" id="svg_40"/>
  <path d="m162.39,46.89l-0.9,-0.98l7.53,-6.95l-2.51,-2.72c-0.48,0.34 -0.98,0.69 -1.5,1.06c-0.53,0.37 -1.05,0.74 -1.57,1.1c-0.53,0.37 -1.02,0.71 -1.5,1.02c-0.47,0.32 -0.9,0.59 -1.28,0.82c-0.62,0.4 -1.19,0.69 -1.7,0.89c-0.51,0.2 -0.97,0.26 -1.4,0.2c-0.42,-0.06 -0.81,-0.29 -1.18,-0.69c-0.12,-0.13 -0.23,-0.28 -0.33,-0.44c-0.09,-0.15 -0.16,-0.3 -0.22,-0.43l0.82,-0.76c0.05,0.12 0.1,0.25 0.18,0.38c0.07,0.14 0.17,0.27 0.28,0.39c0.22,0.24 0.49,0.34 0.81,0.31c0.33,-0.04 0.68,-0.16 1.05,-0.36c0.37,-0.19 0.75,-0.4 1.12,-0.63c0.3,-0.19 0.69,-0.43 1.14,-0.73c0.46,-0.31 0.98,-0.66 1.55,-1.05c0.57,-0.4 1.19,-0.82 1.84,-1.28c0.65,-0.45 1.32,-0.92 2,-1.41l4.16,4.51l-8.39,7.75z" fill="#105720" id="svg_41"/>
  <path d="m174.91,54.37c-0.73,0.5 -1.45,0.86 -2.18,1.08c-0.72,0.22 -1.42,0.29 -2.1,0.22c-0.67,-0.07 -1.31,-0.29 -1.9,-0.67c-0.6,-0.38 -1.15,-0.92 -1.63,-1.63c-0.5,-0.73 -0.82,-1.45 -0.96,-2.16c-0.14,-0.7 -0.12,-1.38 0.07,-2.03c0.18,-0.65 0.51,-1.27 0.99,-1.86c0.47,-0.59 1.08,-1.13 1.8,-1.62c0.97,-0.66 1.92,-1.08 2.86,-1.26c0.95,-0.18 1.84,-0.08 2.68,0.28c0.85,0.38 1.61,1.05 2.28,2.03c0.64,0.93 0.97,1.85 1.01,2.76c0.03,0.92 -0.2,1.79 -0.7,2.61c-0.5,0.83 -1.24,1.57 -2.22,2.25zm-5.13,-7.51c-0.8,0.55 -1.42,1.13 -1.84,1.76c-0.43,0.63 -0.65,1.29 -0.65,1.97c0.01,0.69 0.26,1.4 0.76,2.13c0.5,0.73 1.06,1.22 1.7,1.47c0.64,0.25 1.33,0.28 2.06,0.11c0.74,-0.18 1.51,-0.54 2.31,-1.09c1.22,-0.83 1.99,-1.73 2.32,-2.71c0.35,-0.98 0.15,-2.01 -0.59,-3.09c-0.5,-0.73 -1.07,-1.23 -1.7,-1.48c-0.64,-0.26 -1.33,-0.31 -2.07,-0.14c-0.73,0.16 -1.5,0.52 -2.3,1.07z" fill="#105720" id="svg_42"/>
  <path d="m173.75,64.45l7.57,-7.73l-0.03,-0.06c-0.19,0.11 -0.41,0.24 -0.69,0.38c-0.27,0.15 -0.57,0.3 -0.89,0.46c-0.33,0.16 -0.66,0.32 -1,0.48l-6.55,3.03l-0.51,-1.12l10.36,-4.8l0.83,1.79l-7.1,7.28l0.02,0.05l10.16,-0.67l0.82,1.78l-10.36,4.8l-0.56,-1.19l6.64,-3.08c0.31,-0.14 0.62,-0.28 0.93,-0.41c0.31,-0.14 0.61,-0.26 0.89,-0.37c0.29,-0.12 0.54,-0.21 0.75,-0.29l-0.03,-0.06l-10.79,0.72l-0.46,-0.99z" fill="#105720" id="svg_43"/>
  <path d="m183.09,77.58l-3.84,-1.64l0.25,-1.02l3.3,1.32l1.97,-2.95l0.78,0.71l-2.26,3.52l-0.2,0.06zm-0.92,-2.99l-3.83,-1.62l0.25,-1.03l3.3,1.32l1.97,-2.94l0.77,0.71l-2.26,3.49l-0.2,0.07z" fill="#105720" id="svg_44"/>
 </g>
</svg>