<svg width="52" height="52" viewBox="0 0 52 52" fill="none" xmlns="http://www.w3.org/2000/svg">
<circle cx="26" cy="26" r="26" fill="#F95707"/>
<path fill-rule="evenodd" clip-rule="evenodd" d="M40.8362 36.3059C35.2467 30.6017 35.2467 30.6017 35.2467 30.6017C36.1234 29.6992 36.671 28.4572 36.671 27.1008C36.671 25.3513 35.8497 23.8269 34.5346 22.9227C34.5346 21.1714 34.5346 21.1714 34.5346 21.1714C34.5346 21.116 34.5346 21.116 34.5346 21.0588C34.5346 21.0034 34.4791 21.0034 34.4791 21.0034C34.4791 20.9462 34.4791 20.9462 34.4791 20.9462C34.4791 20.9462 34.4791 20.8891 34.4254 20.8891C34.4254 20.8336 34.4254 20.8336 34.4254 20.8336C28.6712 14.1698 28.6712 14.1697 28.6712 14.1697C28.6712 14.1697 28.6712 14.1697 28.6158 14.1697C28.6158 14.1143 28.6158 14.1143 28.6158 14.1143C28.6158 14.1143 28.6158 14.1143 28.5621 14.0572C28.5066 14.0572 28.5066 14.0572 28.5066 14C28.4512 14 28.4512 14 28.4512 14H28.3975H28.342H28.2883C18.2042 14 18.2042 14 18.2042 14C17.5475 14 17 14.5647 17 15.2437C17 36.7008 17 36.7008 17 36.7008C17 37.3781 17.5475 38 18.2042 38C33.2749 38 33.2749 38 33.2749 38C33.987 38 34.5346 37.3781 34.5346 36.7008C34.5346 31.3361 34.5346 31.3361 34.5346 31.3361C40.1241 37.0958 40.1241 37.0958 40.1241 37.0958C40.2333 37.2084 40.3425 37.2084 40.4533 37.2084C40.6162 37.2084 40.7271 37.2084 40.8362 37.0958C41.0546 36.8706 41.0546 36.5311 40.8362 36.3059ZM35.6296 27.1008C35.6296 29.2471 33.9316 30.9983 31.849 30.9983C29.7663 30.9983 28.0683 29.2471 28.0683 27.1008C28.0683 24.9546 29.7663 23.1479 31.849 23.1479C33.9316 23.1479 35.6296 24.9546 35.6296 27.1008ZM28.7804 15.921C32.8903 20.6639 32.8903 20.6639 32.8903 20.6639C29.0004 20.6639 29.0004 20.6639 29.0004 20.6639C28.945 20.6067 28.7804 20.4387 28.7804 20.2689V15.921ZM33.2749 36.926C18.2042 36.926 18.2042 36.926 18.2042 36.926C18.0951 36.926 18.0396 36.8134 18.0396 36.7008C18.0396 15.2437 18.0396 15.2437 18.0396 15.2437C18.0396 15.1294 18.0951 15.0168 18.2042 15.0168C27.7391 15.0168 27.7391 15.0168 27.7391 15.0168C27.7391 20.2689 27.7391 20.2689 27.7391 20.2689C27.7391 20.9462 28.2883 21.6807 29.0004 21.6807C33.4932 21.6807 33.4932 21.6807 33.4932 21.6807C33.4932 22.4152 33.4932 22.4152 33.4932 22.4152C32.9994 22.2454 32.4519 22.1328 31.849 22.1328C30.5339 22.1328 29.3279 22.6975 28.4512 23.6C21.1099 23.6 21.1099 23.6 21.1099 23.6C20.8344 23.6 20.5607 23.8269 20.5607 24.1075C20.5607 24.4471 20.8344 24.6722 21.1099 24.6722C27.6853 24.6722 27.6853 24.6722 27.6853 24.6722C27.3561 25.2369 27.1361 25.8588 27.0824 26.5361C21.1099 26.5361 21.1099 26.5361 21.1099 26.5361C20.8344 26.5361 20.5607 26.8185 20.5607 27.1008C20.5607 27.3832 20.8344 27.6101 21.1099 27.6101C27.0824 27.6101 27.0824 27.6101 27.0824 27.6101C27.1361 28.2874 27.3561 28.9647 27.6853 29.5294C21.1099 29.5294 21.1099 29.5294 21.1099 29.5294C20.8344 29.5294 20.5607 29.7546 20.5607 30.037C20.5607 30.3193 20.8344 30.6017 21.1099 30.6017C28.4512 30.6017 28.4512 30.6017 28.4512 30.6017C29.3279 31.5059 30.5339 32.0706 31.849 32.0706C32.4519 32.0706 32.9994 31.958 33.4932 31.7311C33.4932 36.7008 33.4932 36.7008 33.4932 36.7008C33.4932 36.8134 33.4378 36.926 33.2749 36.926Z" fill="white"/>
</svg>
