<svg width="52" height="52" viewBox="0 0 52 52" fill="none" xmlns="http://www.w3.org/2000/svg">
<circle cx="26" cy="26" r="26" fill="#F95707"/>
<path fill-rule="evenodd" clip-rule="evenodd" d="M31.7135 23.2961C32.165 23.4092 32.6183 23.5205 33.1267 23.5205C34.4279 23.5205 35.7291 22.9587 36.6339 22.0559C37.9919 20.7044 38.3866 18.6763 37.5955 16.9308C37.5386 16.7613 37.3698 16.6482 37.1991 16.5917C37.0303 16.5917 36.8596 16.6482 36.7476 16.7613C34.1453 19.3529 34.1452 19.3529 34.1452 19.3529C34.0884 19.4095 34.0315 19.4095 33.9746 19.4095C33.9195 19.4095 33.8626 19.4095 33.8057 19.3529C32.6752 18.2258 32.6752 18.2258 32.6752 18.2258C32.5614 18.1128 32.5614 17.9449 32.6752 17.8884C35.2758 15.2967 35.2758 15.2967 35.2758 15.2967C35.3896 15.1836 35.4464 15.0141 35.4464 14.8462C35.3896 14.6766 35.2758 14.507 35.1069 14.4505C34.4848 14.1131 33.8057 14 33.1267 14C31.9393 14 30.8087 14.4505 29.9039 15.3532C28.6579 16.6482 28.1495 18.6198 28.7148 20.3105C20.3441 28.7039 20.3441 28.7039 20.3441 28.7039C19.8909 28.536 19.3825 28.4795 18.8741 28.4795C17.5729 28.4795 16.2717 28.9865 15.3669 29.8875C14.0089 31.239 13.6125 33.2671 14.4052 35.0709C14.4621 35.1822 14.631 35.3518 14.8016 35.3518C14.9705 35.4083 15.1411 35.3518 15.2532 35.1822C17.8555 32.6471 17.8555 32.6471 17.8555 32.6471C17.9693 32.5357 18.1382 32.4792 18.195 32.5905C19.3256 33.7176 19.3256 33.7177 19.3256 33.7177C19.4393 33.8307 19.4393 34.0003 19.3256 34.1116C16.7249 36.7033 16.725 36.7033 16.725 36.7033C16.6112 36.8163 16.5543 36.9859 16.6112 37.1538C16.6112 37.3234 16.725 37.4364 16.8938 37.5495C17.516 37.8304 18.195 38 18.8741 38C20.0615 38 21.2489 37.493 22.0969 36.5919C23.398 35.3518 23.8513 33.3237 23.286 31.633L31.7135 23.2961ZM21.3627 35.8588C20.6836 36.5354 19.7788 36.9294 18.8741 36.9294C18.5914 36.9294 18.3639 36.8729 18.0813 36.8164C20.0615 34.8448 20.0615 34.8448 20.0615 34.8448C20.5699 34.3377 20.6268 33.4933 20.1184 32.9862C18.9861 31.8591 18.9861 31.8591 18.9861 31.8591C18.7603 31.5765 18.4208 31.4651 18.0813 31.4651C17.7418 31.4651 17.3471 31.633 17.1196 31.8591C15.1411 33.8307 15.1411 33.8307 15.1411 33.8307C14.9137 32.7036 15.2532 31.5216 16.1579 30.6189C16.837 29.944 17.8555 29.4935 18.8741 29.4935C19.3825 29.4935 19.8357 29.6049 20.2304 29.7745C20.4579 29.8875 20.6836 29.831 20.8525 29.6614C29.7333 20.8175 29.7333 20.8175 29.7333 20.8175C29.847 20.6479 29.9039 20.4235 29.8471 20.2539C29.2818 18.9024 29.6196 17.1552 30.6381 16.0846C31.3171 15.4097 32.2219 15.0141 33.1267 15.0141C33.4094 15.0141 33.692 15.0706 33.9195 15.1271C31.9393 17.0987 31.9393 17.0987 31.9393 17.0987C31.4309 17.6623 31.4309 18.4502 31.9393 18.9572C33.0698 20.0844 33.0698 20.0844 33.0698 20.0844C33.2973 20.3105 33.6368 20.4801 33.9746 20.4801C34.3141 20.4801 34.6537 20.3105 34.938 20.0844C36.8596 18.1128 36.8596 18.1128 36.8596 18.1128C37.0871 19.2399 36.7476 20.48 35.898 21.3245C35.1638 22.0559 34.1453 22.4516 33.1267 22.4516C32.6752 22.4516 32.2219 22.3386 31.7704 22.169C31.5998 22.1125 31.374 22.1125 31.2034 22.2821C22.3243 31.126 22.3243 31.126 22.3243 31.126C22.1537 31.2956 22.0968 31.5217 22.2106 31.7461C22.7759 33.0993 22.4364 34.8448 21.3627 35.8588Z" fill="white"/>
<path fill-rule="evenodd" clip-rule="evenodd" d="M30.0866 27.1057C29.916 26.9361 29.5748 26.9361 29.3473 27.1057C29.1198 27.3301 29.1198 27.6658 29.3473 27.8337C36.8079 35.1839 36.8079 35.1839 36.8079 35.1839C36.9217 35.297 36.9217 35.4648 36.8079 35.5762C35.7256 36.6982 35.7256 36.6981 35.7256 36.6981C35.6688 36.7547 35.6119 36.7547 35.555 36.7547C35.4981 36.7547 35.3844 36.7547 35.3275 36.6981C27.8668 29.3496 27.8669 29.3496 27.8669 29.3496C27.6376 29.1253 27.2964 29.1253 27.1258 29.3496C26.8983 29.5175 26.8983 29.855 27.1258 30.0794C34.5864 37.4279 34.5865 37.4279 34.5865 37.4279C34.8725 37.6522 35.2138 37.8218 35.555 37.8218C35.8962 37.8218 36.2392 37.6522 36.5236 37.4279C37.549 36.3059 37.549 36.3059 37.549 36.3059C38.1177 35.8023 38.1177 34.9595 37.549 34.4542L30.0866 27.1057Z" fill="white"/>
<path fill-rule="evenodd" clip-rule="evenodd" d="M16.401 18.6438C16.5147 18.7568 16.6267 18.7568 16.7405 18.7568C16.9094 18.7568 17.0214 18.7568 17.1351 18.6438C17.4747 18.2532 17.4746 18.2532 17.4746 18.2532C23.0654 23.7364 23.0654 23.7364 23.0654 23.7364C23.1792 23.8477 23.2912 23.9042 23.4049 23.9042C23.5738 23.9042 23.6859 23.8477 23.7996 23.7364C24.0254 23.5685 24.0254 23.2327 23.7996 23.0084C18.2657 17.5252 18.2657 17.5252 18.2657 17.5252C18.6035 17.1895 18.6035 17.1895 18.6035 17.1895C18.8293 16.9651 18.8293 16.6311 18.6035 16.4067C16.401 14.2244 16.401 14.2244 16.401 14.2244C16.1752 14 15.8357 14 15.6668 14.2244C14.1416 15.6787 14.1416 15.6787 14.1416 15.6787C13.9727 15.9031 13.9727 16.2388 14.1416 16.4067L16.401 18.6438ZM16.0063 15.343C17.4746 16.7972 17.4746 16.7972 17.4746 16.7972C16.7405 17.5252 16.7405 17.5252 16.7405 17.5252C15.2721 16.0709 15.2721 16.071 15.2721 16.071L16.0063 15.343Z" fill="white"/>
</svg>
