<svg width="52" height="52" viewBox="0 0 52 52" fill="none" xmlns="http://www.w3.org/2000/svg">
<circle cx="26" cy="26" r="26" fill="#F95707"/>
<path fill-rule="evenodd" clip-rule="evenodd" d="M41.9851 33.2395C38.152 20.2607 38.152 20.2607 38.152 20.2607C38.0924 20.0909 37.975 19.9783 37.798 19.9212C37.621 19.864 37.4439 19.864 37.3247 19.9783C33.4916 22.0173 33.4916 22.0173 33.4916 22.0173C33.1972 22.1871 33.1394 22.4712 33.2568 22.7553C33.4338 22.9805 33.7879 23.0948 34.0227 22.9251C37.2669 21.2239 37.2669 21.2239 37.2669 21.2239C40.8056 33.1823 40.8056 33.1823 40.8056 33.1823C34.9078 36.6401 34.9078 36.6401 34.9078 36.6401C33.4916 25.5323 33.4916 25.5323 33.4916 25.5323C33.4338 25.2482 33.1972 25.0784 32.9028 25.0784C32.5487 25.1356 32.3717 25.4179 32.3717 25.702C33.8457 36.7527 33.8457 36.7527 33.8457 36.7527C26.5335 34.8835 26.5335 34.8835 26.5335 34.8835C26.5335 32.9554 26.5335 32.9554 26.5335 32.9554C26.5335 32.673 26.2969 32.4461 26.0024 32.4461C25.708 32.4461 25.4136 32.673 25.4136 32.9554C25.4136 34.8835 25.4136 34.8835 25.4136 34.8835C18.1592 36.7527 18.1592 36.7527 18.1592 36.7527C19.5754 25.702 19.5754 25.702 19.5754 25.702C19.6332 25.4179 19.3984 25.1356 19.1021 25.0784C18.8077 25.0784 18.5133 25.2482 18.5133 25.5323C17.0393 36.6401 17.0393 36.6401 17.0393 36.6401C11.2011 33.1823 11.2011 33.1823 11.2011 33.1823C14.738 21.2239 14.738 21.2239 14.738 21.2239C17.9822 22.9251 17.9822 22.9251 17.9822 22.9251C18.2188 23.0948 18.5711 22.9805 18.6903 22.7553C18.8673 22.4712 18.7499 22.1871 18.5133 22.0173C14.6802 19.9783 14.6802 19.9783 14.6802 19.9783C14.5031 19.864 14.3261 19.864 14.2087 19.9212C14.0317 19.9783 13.9125 20.0909 13.8546 20.2607C10.0215 33.2395 10.0215 33.2395 10.0215 33.2395C9.96194 33.5236 10.0215 33.7488 10.2564 33.8631C17.2163 37.9428 17.2163 37.9428 17.2163 37.9428C17.2741 37.9428 17.2741 38 17.2741 38H17.3337C17.3337 38 17.3337 38 17.3933 38C17.4511 38 17.4511 38 17.5107 38C17.5107 38 17.5685 38 17.6281 38C26.0024 35.7895 26.0024 35.7895 26.0024 35.7895C34.3171 38 34.3171 38 34.3171 38C34.3767 38 34.3767 38 34.3767 38C34.3767 38 34.4363 38 34.4942 38H34.5538C34.6134 38 34.6134 38 34.6134 38H34.6712C34.7308 38 34.7308 37.9428 34.7308 37.9428C34.7904 37.9428 34.7904 37.9428 34.7904 37.9428C41.7485 33.8631 41.7485 33.8631 41.7485 33.8631C41.9255 33.7488 42.0429 33.5236 41.9851 33.2395Z" fill="white"/>
<path fill-rule="evenodd" clip-rule="evenodd" d="M25.5888 31.5712C25.708 31.6267 25.885 31.6838 26.0024 31.6838C26.1198 31.6838 26.2391 31.6267 26.3565 31.5712C26.6509 31.3443 32.7293 25.9775 32.7293 20.4409C32.7293 16.8237 29.7795 14 26.0024 14C22.2253 14 19.2755 16.8237 19.2755 20.4409C19.2755 25.8649 25.3539 31.3443 25.5888 31.5712ZM26.0024 15.0169C29.1889 15.0169 31.6076 17.333 31.6076 20.4409C31.6076 24.7337 27.3012 29.1979 26.0024 30.4418C24.7037 29.1408 20.3377 24.6782 20.3377 20.4409C20.3377 17.333 22.7564 15.0169 26.0024 15.0169Z" fill="white"/>
<path fill-rule="evenodd" clip-rule="evenodd" d="M29.6242 20.4062C29.6242 18.4764 27.9678 16.8861 25.9555 16.8861C23.9432 16.8861 22.2868 18.4764 22.2868 20.4062C22.2868 22.3361 23.9432 23.9246 25.9555 23.9246C27.9678 23.9246 29.6242 22.3361 29.6242 20.4062ZM25.9555 22.8454C24.5357 22.8454 23.4103 21.7679 23.4103 20.4062C23.4103 19.0429 24.5357 17.9654 25.9555 17.9654C27.3753 17.9654 28.5006 19.0429 28.5006 20.4062C28.5006 21.7679 27.3753 22.8454 25.9555 22.8454Z" fill="white"/>
</svg>
