<svg width="52" height="52" viewBox="0 0 52 52" fill="none" xmlns="http://www.w3.org/2000/svg">
<circle cx="26" cy="26" r="26" fill="#F95707"/>
<path d="M31 35V33C31 31.9391 30.5786 30.9217 29.8284 30.1716C29.0783 29.4214 28.0609 29 27 29H19C17.9391 29 16.9217 29.4214 16.1716 30.1716C15.4214 30.9217 15 31.9391 15 33V35" stroke="white" stroke-width="1.5" stroke-linecap="round" stroke-linejoin="round"/>
<path d="M23 25C25.2091 25 27 23.2091 27 21C27 18.7909 25.2091 17 23 17C20.7909 17 19 18.7909 19 21C19 23.2091 20.7909 25 23 25Z" stroke="white" stroke-width="1.5" stroke-linecap="round" stroke-linejoin="round"/>
<path d="M37 34.9999V32.9999C36.9993 32.1136 36.7044 31.2527 36.1614 30.5522C35.6184 29.8517 34.8581 29.3515 34 29.1299" stroke="white" stroke-width="1.5" stroke-linecap="round" stroke-linejoin="round"/>
<path d="M30 17.1299C30.8604 17.3502 31.623 17.8506 32.1676 18.5522C32.7122 19.2538 33.0078 20.1167 33.0078 21.0049C33.0078 21.8931 32.7122 22.756 32.1676 23.4576C31.623 24.1592 30.8604 24.6596 30 24.8799" stroke="white" stroke-width="1.5" stroke-linecap="round" stroke-linejoin="round"/>
</svg>
