<svg width="52" height="52" viewBox="0 0 52 52" fill="none" xmlns="http://www.w3.org/2000/svg">
<circle cx="26" cy="26" r="26" fill="#F95707"/>
<path fill-rule="evenodd" clip-rule="evenodd" d="M35.8248 14.4355C35.757 14.2326 35.6893 14.0956 35.5521 14.028C35.3488 13.9604 35.2132 14.028 35.076 14.0956C35.0083 14.0956 30.7256 16.2022 26.0347 16.2022C21.2761 16.2022 17.0595 14.0956 16.9917 14.0956C16.8562 14.028 16.6529 13.9604 16.5157 14.028C16.3802 14.0956 16.2447 14.2326 16.2447 14.4355C16.1769 14.5048 14 21.0916 14 27.6108C14 34.5358 25.4232 37.8647 25.8992 38C25.967 38 25.967 38 26.0347 38H26.1025C26.5785 37.8647 38 34.5358 38 27.6108C38 21.0916 35.8248 14.5048 35.8248 14.4355ZM26.0347 36.9129C24.8794 36.6424 15.0893 33.3152 15.0893 27.6108C15.0893 22.314 16.5835 17.2876 17.1273 15.3197C18.4876 15.93 22.0232 17.2876 26.0347 17.2876C29.9785 17.2876 33.5819 15.93 34.9405 15.3197C35.4165 17.2876 36.9124 22.314 36.9124 27.6108C36.9124 33.3152 27.1223 36.6424 26.0347 36.9129ZM27.8694 23.8068C26.0347 18.9174 26.0347 18.9174 26.0347 18.9174C24.1306 23.8068 24.1306 23.8068 24.1306 23.8068C19.1669 23.8068 19.1669 23.8068 19.1669 23.8068C23.2463 26.9312 23.2463 26.9312 23.2463 26.9312C21.3438 32.4986 21.3438 32.4986 21.3438 32.4986C26.0347 29.1037 26.0347 29.1037 26.0347 29.1037C30.6579 32.4986 30.6579 32.4986 30.6579 32.4986C28.8215 26.9312 28.8215 26.9312 28.8215 26.9312C32.8331 23.8068 32.8331 23.8068 32.8331 23.8068H27.8694ZM27.7339 27.271C28.5504 29.5788 28.5504 29.5788 28.5504 29.5788C26.6463 28.2212 26.6463 28.2212 26.6463 28.2212C26.0347 27.7461 26.0347 27.7461 26.0347 27.7461C25.3537 28.2212 25.3537 28.2212 25.3537 28.2212C23.4513 29.5788 23.4513 29.5788 23.4513 29.5788C24.2661 27.271 24.2661 27.271 24.2661 27.271C24.4711 26.5237 24.4711 26.5237 24.4711 26.5237C23.8595 26.0487 23.8595 26.0487 23.8595 26.0487C22.3637 24.8939 22.3637 24.8939 22.3637 24.8939C24.8794 24.8939 24.8794 24.8939 24.8794 24.8939C25.1504 24.2143 25.1504 24.2143 25.1504 24.2143C26.0347 21.9742 26.0347 21.9742 26.0347 21.9742C26.8496 24.2143 26.8496 24.2143 26.8496 24.2143C27.1223 24.8939 27.1223 24.8939 27.1223 24.8939C29.638 24.8939 29.638 24.8939 29.638 24.8939C28.1422 26.0487 28.1422 26.0487 28.1422 26.0487C27.5306 26.5237 27.5306 26.5237 27.5306 26.5237L27.7339 27.271Z" fill="white"/>
</svg>
