<svg width="48" height="48" viewBox="0 0 48 48" fill="none" xmlns="http://www.w3.org/2000/svg">
<circle cx="24" cy="24" r="24" fill="#E8EFE9"/>
<path d="M26.8437 11.2H21.1548C18.5144 11.2 15.9822 12.2621 14.1151 14.1525C12.2481 16.043 11.1992 18.607 11.1992 21.2806V25.6008C11.1984 27.5092 11.7326 29.3785 12.7397 30.9916C13.7467 32.6046 15.1853 33.8951 16.8881 34.7129V39.5264C16.8898 39.6203 16.9185 39.7117 16.9708 39.7893C17.023 39.8669 17.0965 39.9274 17.1822 39.9633C17.2679 39.9992 17.3621 40.0091 17.4532 39.9916C17.5443 39.9741 17.6285 39.93 17.6952 39.8648L21.8268 35.6814H26.8437C29.484 35.6814 32.0163 34.6193 33.8833 32.7289C35.7503 30.8384 36.7992 28.2744 36.7992 25.6008V21.2806C36.7992 18.607 35.7503 16.043 33.8833 14.1525C32.0163 12.2621 29.484 11.2 26.8437 11.2ZM30.5699 30.0939L29.1477 31.534C27.633 33.0352 23.6792 31.3215 20.1948 27.7177C16.7103 24.1139 15.1814 20.0709 16.6392 18.5696L18.0614 17.1295C18.3402 16.8762 18.7026 16.7379 19.0771 16.7419C19.4517 16.7459 19.8112 16.8919 20.0846 17.1511L22.161 19.3113C22.3259 19.4836 22.4448 19.6955 22.5066 19.9272C22.5683 20.1589 22.5709 20.4026 22.514 20.6356C22.4571 20.8685 22.3426 21.0829 22.1814 21.2588C22.0201 21.4346 21.8173 21.566 21.5921 21.6406C21.2583 21.7443 20.9767 21.9742 20.8059 22.2826C20.6351 22.591 20.5881 22.9542 20.6748 23.2967C21.0303 24.8952 23.0357 26.8969 24.529 27.2893C24.8657 27.3705 25.22 27.3247 25.5257 27.1603C25.8314 26.996 26.0674 26.7244 26.1894 26.3965C26.2683 26.1678 26.404 25.9635 26.5834 25.8032C26.7629 25.643 26.98 25.5323 27.214 25.4816C27.4479 25.431 27.6908 25.4422 27.9193 25.5141C28.1477 25.5861 28.354 25.7164 28.5183 25.8924L30.5912 28.0526C30.8402 28.334 30.9761 28.6996 30.9721 29.0774C30.9682 29.4552 30.8247 29.8178 30.5699 30.0939ZM25.2934 18.0404C25.152 18.0397 25.0107 18.0481 24.8703 18.0656C24.8085 18.0725 24.7459 18.0669 24.6861 18.0493C24.6264 18.0316 24.5706 18.0022 24.5221 17.9628C24.4736 17.9233 24.4332 17.8746 24.4033 17.8194C24.3733 17.7641 24.3544 17.7034 24.3477 17.6408C24.3409 17.5781 24.3464 17.5148 24.3638 17.4543C24.3812 17.3938 24.4102 17.3373 24.4492 17.2882C24.4882 17.239 24.5363 17.1981 24.5909 17.1678C24.6454 17.1375 24.7054 17.1184 24.7672 17.1115C24.9419 17.0912 25.1176 17.0816 25.2934 17.0827C26.5517 17.0818 27.7589 17.5868 28.6496 18.4866C29.5404 19.3865 30.0418 20.6077 30.0437 21.8818C30.0448 22.0598 30.0353 22.2378 30.0152 22.4146C30.0084 22.4773 29.9896 22.538 29.9596 22.5932C29.9297 22.6485 29.8893 22.6972 29.8408 22.7367C29.7922 22.7761 29.7365 22.8055 29.6768 22.8231C29.617 22.8408 29.5544 22.8463 29.4926 22.8395C29.4307 22.8326 29.3708 22.8135 29.3162 22.7832C29.2616 22.7529 29.2135 22.712 29.1745 22.6628C29.1356 22.6137 29.1066 22.5573 29.0891 22.4968C29.0717 22.4363 29.0662 22.3729 29.073 22.3102C29.0885 22.168 29.0968 22.025 29.0979 21.8818C29.096 20.8617 28.6942 19.8841 27.9809 19.1638C27.2675 18.4435 26.3009 18.0394 25.2934 18.0404ZM28.1379 21.8818C28.1276 22.0021 28.0731 22.1141 27.9853 22.1957C27.8974 22.2773 27.7825 22.3226 27.6632 22.3226C27.544 22.3226 27.4291 22.2773 27.3412 22.1957C27.2533 22.1141 27.1988 22.0021 27.1886 21.8818C27.1886 21.3729 26.9889 20.8848 26.6335 20.5249C26.2781 20.1651 25.7961 19.9629 25.2934 19.9629C25.2277 19.9687 25.1614 19.9605 25.0989 19.939C25.0364 19.9175 24.979 19.883 24.9303 19.8378C24.8816 19.7926 24.8428 19.7377 24.8162 19.6765C24.7896 19.6153 24.7759 19.5491 24.7759 19.4823C24.7759 19.4154 24.7896 19.3493 24.8162 19.2881C24.8428 19.2269 24.8816 19.1719 24.9303 19.1267C24.979 19.0815 25.0364 19.0471 25.0989 19.0256C25.1614 19.004 25.2277 18.9959 25.2934 19.0017C26.0478 19.0017 26.7713 19.3051 27.3048 19.8452C27.8382 20.3854 28.1379 21.1179 28.1379 21.8818ZM31.7539 23.4407C31.7434 23.5062 31.7196 23.5687 31.6842 23.6245C31.6487 23.6802 31.6023 23.7279 31.5478 23.7647C31.4933 23.8015 31.4319 23.8265 31.3674 23.8381C31.303 23.8498 31.2368 23.8479 31.1731 23.8325C31.1094 23.8171 31.0495 23.7886 30.9972 23.7487C30.9449 23.7089 30.9012 23.6585 30.869 23.6008C30.8367 23.5431 30.8166 23.4793 30.8098 23.4133C30.803 23.3474 30.8097 23.2807 30.8294 23.2175C30.9321 22.7823 30.9834 22.3364 30.9823 21.889C30.9823 20.3613 30.383 18.8961 29.3161 17.8159C28.2492 16.7356 26.8022 16.1287 25.2934 16.1287C25.1477 16.1287 24.9983 16.1287 24.8526 16.1287C24.7905 16.1334 24.728 16.1257 24.6689 16.106C24.6097 16.0863 24.555 16.055 24.5078 16.0139C24.4124 15.9309 24.3535 15.8129 24.3441 15.6859C24.3347 15.5589 24.3755 15.4333 24.4575 15.3367C24.5395 15.2402 24.656 15.1806 24.7814 15.171C24.9521 15.1566 25.1228 15.1494 25.2934 15.1494C27.055 15.1523 28.7434 15.8629 29.988 17.1251C31.2326 18.3874 31.9317 20.0981 31.9317 21.8818C31.9319 22.4066 31.8722 22.9297 31.7539 23.4407Z" fill="#105720"/>
</svg>
