<svg width="48" height="48" viewBox="0 0 48 48" fill="none" xmlns="http://www.w3.org/2000/svg">
<circle cx="24" cy="24" r="24" fill="#E8EFE9"/>
<path d="M23.9928 11.2C21.6349 11.2009 19.3232 11.8532 17.3125 13.085C15.3019 14.3167 13.6706 16.08 12.5986 18.1803C11.5265 20.2806 11.0555 22.6362 11.2374 24.9874C11.4192 27.3385 12.247 29.5936 13.6293 31.504L12.0295 36.2592L16.9536 34.6848C18.6195 35.7838 20.5192 36.478 22.5011 36.7118C24.483 36.9457 26.4921 36.7128 28.3679 36.0318C30.2438 35.3507 31.9344 34.2404 33.3047 32.7895C34.6751 31.3386 35.6872 29.5873 36.2602 27.6755C36.8333 25.7636 36.9513 23.7443 36.605 21.7787C36.2587 19.8131 35.4576 17.9558 34.2657 16.355C33.0737 14.7542 31.524 13.4544 29.7403 12.5593C27.9567 11.6643 25.9884 11.1988 23.9928 11.2ZM30.7951 29.3024L29.4321 30.6656C27.9987 32.0992 24.1975 30.5216 20.8284 27.1456C17.4592 23.7696 15.949 19.9776 17.312 18.56L18.675 17.1968C18.939 16.9542 19.2844 16.8195 19.6429 16.8195C20.0014 16.8195 20.3468 16.9542 20.6108 17.1968L22.6201 19.2C22.784 19.3593 22.9042 19.558 22.9692 19.7771C23.0342 19.9962 23.0419 20.2283 22.9915 20.4513C22.9411 20.6742 22.8342 20.8804 22.6813 21.0502C22.5283 21.2199 22.3343 21.3476 22.1178 21.4208C21.7985 21.5229 21.5308 21.7441 21.3705 22.0386C21.2101 22.333 21.1695 22.678 21.2571 23.0016C21.6155 24.5056 23.5512 26.3712 24.9878 26.7296C25.3097 26.7972 25.6451 26.7463 25.9326 26.5864C26.22 26.4266 26.4401 26.1683 26.5524 25.8592C26.6249 25.6396 26.753 25.4425 26.9243 25.2872C27.0956 25.1318 27.3043 25.0236 27.5299 24.973C27.7555 24.9224 27.9904 24.9311 28.2116 24.9984C28.4329 25.0657 28.6329 25.1892 28.7922 25.3568L30.7983 27.3664C31.0405 27.6308 31.1746 27.9765 31.174 28.335C31.1734 28.6936 31.0382 29.0388 30.7951 29.3024Z" fill="#105720"/>
</svg>
