<svg width="80" height="80" viewBox="0 0 80 80" fill="none" xmlns="http://www.w3.org/2000/svg">
<circle cx="40" cy="40" r="40" fill="#105720"/>
<path d="M57.5 32.4751C57.5 31.4251 56.8 30.3751 56.1 29.8501L45.075 23.0251C44.6216 22.7673 44.109 22.6318 43.5875 22.6318C43.066 22.6318 42.5534 22.7673 42.1 23.0251L24.075 33.5251C23.2 33.8751 22.5 34.9251 22.5 35.9751V47.5251C22.5 48.4001 23.2 49.6251 23.9 50.1501L34.925 56.9751C35.3784 57.2328 35.891 57.3683 36.4125 57.3683C36.934 57.3683 37.4466 57.2328 37.9 56.9751L55.925 46.4751C56.8 45.9501 57.5 44.7251 57.5 43.8501V32.4751Z" stroke="white" stroke-width="1.5" stroke-linecap="round" stroke-linejoin="round"/>
<path d="M36.5008 57.325V43.5M36.5008 43.5L22.6758 34.925M36.5008 43.5L57.3258 31.425M43.5008 53.65V39.475M50.5008 49.625V35.45" stroke="white" stroke-width="1.5" stroke-linecap="round" stroke-linejoin="round"/>
</svg>
