<svg width="80" height="80" viewBox="0 0 80 80" fill="none" xmlns="http://www.w3.org/2000/svg">
<circle opacity="0.8" cx="40" cy="40" r="40" fill="#105720"/>
<path d="M54.6762 28.4911L54.6614 28.478L47.2901 21.5365C46.9213 21.1703 46.4226 20.9648 45.9029 20.9648C45.3832 20.9648 44.8846 21.1703 44.5158 21.5365L36.7425 29.2475L36.0288 28.5272C35.3791 27.8978 34.5079 27.5491 33.6033 27.5565C32.6988 27.5638 31.8334 27.9267 31.194 28.5667C30.5547 29.2067 30.1927 30.0724 30.1862 30.977C30.1798 31.8816 30.5293 32.7525 31.1594 33.4015L31.8567 34.1086L28.1062 37.8394C27.9227 38.0223 27.7771 38.2397 27.6777 38.479C27.5783 38.7183 27.5272 38.9748 27.5272 39.2339C27.5272 39.4931 27.5783 39.7496 27.6777 39.9889C27.7771 40.2282 27.9227 40.4456 28.1062 40.6285L30.1882 42.7039C30.3711 42.8874 30.5884 43.033 30.8277 43.1324C31.067 43.2318 31.3236 43.2829 31.5827 43.2829C31.8418 43.2829 32.0984 43.2318 32.3377 43.1324C32.577 43.033 32.7944 42.8874 32.9773 42.7039L36.713 39.0207L39.1591 41.5013C39.2201 41.5622 39.2686 41.6346 39.3016 41.7143C39.3346 41.794 39.3516 41.8793 39.3516 41.9656C39.3516 42.0518 39.3346 42.1372 39.3016 42.2169C39.2686 42.2966 39.2201 42.3689 39.1591 42.4299L28.5377 53.1579C28.1911 53.4712 27.9118 53.8517 27.7168 54.2762C27.5218 54.7008 27.4152 55.1606 27.4034 55.6276C27.3917 56.0947 27.4751 56.5593 27.6485 56.9931C27.8219 57.4269 28.0818 57.821 28.4123 58.1512C28.7428 58.4815 29.1369 58.7411 29.5709 58.9142C30.0048 59.0873 30.4695 59.1704 30.9365 59.1584C31.4036 59.1463 31.8633 59.0394 32.2877 58.8441C32.7122 58.6488 33.0925 58.3692 33.4055 58.0224L47.9545 43.3601C48.3227 42.991 48.5295 42.491 48.5295 41.9697C48.5295 41.4484 48.3227 40.9483 47.9545 40.5793L41.6398 34.1956L44.227 31.6608C44.288 31.5993 44.3606 31.5505 44.4406 31.5172C44.5206 31.4839 44.6063 31.4667 44.693 31.4667C44.7796 31.4667 44.8654 31.4839 44.9453 31.5172C45.0253 31.5505 45.0979 31.5993 45.1589 31.6608L51.2948 37.4604C51.6638 37.8276 52.1631 38.0337 52.6836 38.0337C53.2041 38.0337 53.7035 37.8276 54.0724 37.4604L54.6827 36.8518C55.2314 36.3033 55.6666 35.6521 55.9635 34.9354C56.2605 34.2187 56.4133 33.4505 56.4133 32.6747C56.4133 31.8989 56.2605 31.1308 55.9635 30.4141C55.6666 29.6974 55.2314 29.0462 54.6827 28.4977L54.6762 28.4911ZM32.0437 41.7802C31.9207 41.9029 31.754 41.9718 31.5803 41.9718C31.4065 41.9718 31.2398 41.9029 31.1168 41.7802L29.0348 39.695C28.9121 39.5719 28.8432 39.4053 28.8432 39.2315C28.8432 39.0577 28.9121 38.891 29.0348 38.768L32.7804 35.0422L35.786 38.0904L32.0437 41.7802ZM47.0243 42.4365L32.4752 57.0954C32.2827 57.3148 32.0471 57.4923 31.7832 57.617C31.5192 57.7416 31.2325 57.8108 30.9408 57.8201C30.649 57.8295 30.3585 57.7789 30.0871 57.6714C29.8157 57.5639 29.5692 57.4019 29.363 57.1953C29.1568 56.9887 28.9951 56.742 28.8881 56.4705C28.7811 56.1989 28.7309 55.9082 28.7408 55.6165C28.7506 55.3248 28.8202 55.0382 28.9453 54.7744C29.0704 54.5107 29.2483 54.2755 29.468 54.0832L40.0812 43.3585C40.4488 42.9895 40.6553 42.4898 40.6553 41.9689C40.6553 41.448 40.4488 40.9483 40.0812 40.5793L32.0913 32.4762C31.7342 32.0694 31.5451 31.5419 31.5625 31.0008C31.5798 30.4597 31.8023 29.9454 32.1848 29.5623C32.5673 29.1792 33.0812 28.9558 33.6223 28.9376C34.1634 28.9193 34.6911 29.1075 35.0986 29.464L47.0259 41.5046C47.0871 41.5657 47.1356 41.6382 47.1686 41.7181C47.2016 41.798 47.2186 41.8836 47.2184 41.97C47.2183 42.0565 47.201 42.142 47.1677 42.2218C47.1344 42.3015 47.0857 42.3739 47.0243 42.4348V42.4365ZM53.7509 35.9182L53.1405 36.5286C53.0175 36.6513 52.8508 36.7202 52.6771 36.7202C52.5033 36.7202 52.3366 36.6513 52.2136 36.5286L52.1988 36.5154L46.0694 30.7175C45.6998 30.3556 45.2025 30.1537 44.6852 30.1556C44.1679 30.1574 43.6721 30.3628 43.305 30.7273L40.7095 33.2637L37.6662 30.1908L45.4411 22.4799C45.502 22.4189 45.5744 22.3705 45.6541 22.3374C45.7337 22.3044 45.8191 22.2874 45.9054 22.2874C45.9916 22.2874 46.077 22.3044 46.1567 22.3374C46.2364 22.3705 46.3087 22.4189 46.3697 22.4799L46.3844 22.493L53.7541 29.4329C54.6137 30.2941 55.0965 31.4612 55.0965 32.678C55.0965 33.8948 54.6137 35.0619 53.7541 35.9232L53.7509 35.9182Z" fill="white"/>
</svg>
