<svg width="80" height="80" viewBox="0 0 80 80" fill="none" xmlns="http://www.w3.org/2000/svg">
<circle cx="40" cy="40" r="40" fill="#105720"/>
<path d="M38.3008 23.4451C38.8206 23.1564 39.4054 23.0049 40 23.0049C40.5946 23.0049 41.1794 23.1564 41.6992 23.4451L54.8505 30.7496C55.1232 30.9012 55.3503 31.1229 55.5085 31.3918C55.6666 31.6608 55.75 31.9671 55.75 32.2791V46.6903C55.7502 47.3147 55.5833 47.9278 55.2666 48.466C54.95 49.0042 54.4951 49.4479 53.9493 49.7511L41.6992 56.5551C41.1794 56.8437 40.5946 56.9952 40 56.9952C39.4054 56.9952 38.8206 56.8437 38.3008 56.5551L26.0507 49.7493C25.5054 49.4464 25.0509 49.0033 24.7343 48.4658C24.4176 47.9283 24.2505 47.3159 24.25 46.6921V32.2791C24.25 31.9671 24.3334 31.6608 24.4915 31.3918C24.6497 31.1229 24.8768 30.9012 25.1495 30.7496L38.3008 23.4451Z" stroke="white" stroke-width="1.5" stroke-linecap="round" stroke-linejoin="round"/>
<path d="M24.25 31.25L40 40M40 40L55.75 31.25M40 40V57.5" stroke="white" stroke-width="1.5" stroke-linejoin="round"/>
<path d="M32.125 35.625L47.875 26.875M29.5 40.574L34.75 43.5" stroke="white" stroke-width="1.5" stroke-linecap="round" stroke-linejoin="round"/>
</svg>
