<svg width="80" height="80" viewBox="0 0 80 80" fill="none" xmlns="http://www.w3.org/2000/svg">
<circle cx="40" cy="40" r="40" fill="#105720"/>
<g clip-path="url(#clip0_127_353)">
<path class="path" d="M19.6562 60.3423H60.3437C60.7067 60.3423 61 60.049 61 59.6861V57.0611C61 56.6982 60.7067 56.4048 60.3437 56.4048H58.375V51.1548H60.3437C60.7067 51.1548 61 50.8615 61 50.4986V47.8736C61 47.5107 60.7067 47.2173 60.3437 47.2173H57.9307L44.3693 37.5554C44.5157 37.0718 44.5944 36.5638 44.5983 36.0447C44.6082 34.7513 44.1534 33.5372 43.322 32.581L43.8069 30.1575H43.9296C44.1363 30.1575 44.3306 30.0603 44.4553 29.895L46.4234 27.2673C46.508 27.1538 46.554 27.0153 46.554 26.8736V20.3137C46.554 19.9508 46.2606 19.6575 45.8977 19.6575H34.0833C33.7203 19.6575 33.427 19.9508 33.427 20.3137V26.8736C33.427 27.0153 33.473 27.1538 33.5576 27.2673L35.5257 29.895C35.6497 30.0603 35.844 30.1575 36.0513 30.1575H36.073V31.571C36.0665 31.7469 36.1268 31.9241 36.2607 32.058L38.8575 34.6561C39.1055 34.9041 39.242 35.2343 39.242 35.5847C39.242 35.9351 39.1055 36.2639 38.8575 36.512C38.7715 36.5979 38.6744 36.6635 38.5733 36.7206C38.574 36.5881 38.5458 36.4542 38.463 36.3374C38.2537 36.0428 37.8442 35.9738 37.5476 36.1838L37.0416 36.5448C37.0285 36.533 37.0134 36.5244 37.001 36.512L35.273 34.7853C35.0998 34.6121 34.8445 34.5491 34.6122 34.6233C34.3792 34.6968 34.206 34.8936 34.1627 35.1345C33.9697 36.2206 34.1285 37.3224 34.586 38.293L22.0614 47.2173H19.6562C19.2933 47.2173 19 47.5107 19 47.8736V50.4986C19 50.8615 19.2933 51.1548 19.6562 51.1548H21.6257V56.4048H19.6562C19.2933 56.4048 19 56.6982 19 57.0611V59.6861C19 60.049 19.2933 60.3423 19.6562 60.3423ZM34.7395 26.6551V20.97H45.2408V26.6551L43.6008 28.845H36.3795L34.7395 26.6551ZM39.7854 37.4412C40.2822 36.9458 40.5552 36.2862 40.5552 35.5853C40.5552 34.8838 40.2822 34.2249 39.786 33.7288L37.3862 31.3276V30.1581H42.4682L41.97 32.648C41.9655 32.669 41.9727 32.6893 41.97 32.711C41.9655 32.7563 41.9655 32.7995 41.9707 32.8448C41.9747 32.8862 41.9819 32.9249 41.9937 32.9643C42.0055 33.0043 42.0213 33.041 42.041 33.0785C42.062 33.1185 42.0855 33.1539 42.1145 33.1887C42.1282 33.2051 42.1335 33.2261 42.1492 33.2412C42.8901 33.9815 43.293 34.9743 43.2852 36.0368C43.2773 37.0986 42.8612 38.0955 42.1145 38.8423C41.3702 39.5865 40.3813 39.996 39.33 39.996C38.2787 39.996 37.2897 39.5865 36.5455 38.8423C36.4812 38.778 36.428 38.7051 36.3683 38.6369L37.1505 38.0791C38.0529 38.358 39.0734 38.1533 39.7854 37.4412ZM35.4738 36.8408L35.9542 37.3205L35.6819 37.514C35.5946 37.2955 35.5205 37.0718 35.4738 36.8408ZM35.2934 39.4028C35.397 39.5274 35.5014 39.6534 35.6175 39.7696C36.6413 40.7933 37.9853 41.3052 39.33 41.3052C40.6746 41.3052 42.0193 40.7933 43.0424 39.7696C43.3449 39.467 43.6008 39.131 43.8187 38.7747L55.6693 47.2173H24.3228L35.2934 39.4028ZM20.3125 48.5298H59.6875V49.8423H20.3125V48.5298ZM22.9382 51.1548H57.0625V56.4048H22.9382V51.1548ZM20.3125 57.7173H59.6875V59.0298H20.3125V57.7173Z" fill="white"/>
<path class="path" d="M43.9277 53.1238H36.0527C35.6898 53.1238 35.3965 53.4172 35.3965 53.7801C35.3965 54.1429 35.6898 54.4363 36.0527 54.4363H43.9277C44.2906 54.4363 44.584 54.1429 44.584 53.7801C44.584 53.4172 44.2906 53.1238 43.9277 53.1238Z" fill="white"/>
</g>
<defs>
<clipPath id="clip0_127_353">
<rect width="42" height="42" fill="white" transform="translate(19 19)"/>
</clipPath>
</defs>
</svg>
