<svg width="80" height="80" viewBox="0 0 80 80" fill="none" xmlns="http://www.w3.org/2000/svg">
<circle cx="40" cy="40" r="40" fill="#105720"/>
<path d="M36.0594 23.3645L50.7769 31.81M50.7769 31.81L46.8272 38.628M50.7769 31.81L52.2487 32.657M40.9612 48.7517L38.3449 53.2667C37.2139 55.2122 35.3583 56.6303 33.1842 57.2109C31.01 57.7914 28.6944 57.487 26.7442 56.3642C25.7796 55.8109 24.9337 55.0726 24.2551 54.1916C23.5765 53.3106 23.0785 52.3042 22.7897 51.2303C22.501 50.1564 22.4271 49.036 22.5724 47.9335C22.7176 46.831 23.0791 45.768 23.6362 44.8055L36.0612 23.3645L34.5964 22.5M40.9612 48.7517L43.8294 43.8045L46.8272 38.628M40.9612 48.7517L36.3884 46.1197M46.8272 38.628L42.3507 36.0537M43.8277 43.8045L36.4724 39.573" stroke="white" stroke-width="1.5" stroke-linecap="round"/>
<path d="M57.5 45.1047C57.5 47.1172 55.9338 48.75 54 48.75C52.0663 48.75 50.5 47.1172 50.5 45.1047C50.5 43.8447 51.8703 42.163 52.8975 41.0797C53.0386 40.9286 53.2093 40.8081 53.399 40.7257C53.5886 40.6433 53.7932 40.6008 54 40.6008C54.2068 40.6008 54.4114 40.6433 54.601 40.7257C54.7907 40.8081 54.9614 40.9286 55.1025 41.0797C56.1297 42.163 57.5 43.8447 57.5 45.1047Z" stroke="white" stroke-width="1.5"/>
</svg>
