<svg width="80" height="80" viewBox="0 0 80 80" fill="none" xmlns="http://www.w3.org/2000/svg">
  <circle cx="40" cy="40" r="40" fill="#105720"/>
  <path class="path" d="M57.0625 36.7188H52.4688V27.5312H57.0625C57.2365 27.5312 57.4035 27.4621 57.5265 27.339C57.6496 27.216 57.7188 27.049 57.7188 26.875C57.7188 26.701 57.6496 26.534 57.5265 26.411C57.4035 26.2879 57.2365 26.2188 57.0625 26.2188H52.3539C52.2183 25.8353 51.9673 25.5032 51.6353 25.2682C51.3034 25.0331 50.9067 24.9067 50.5 24.9062H47.875C47.4683 24.9067 47.0716 25.0331 46.7397 25.2682C46.4077 25.5032 46.1567 25.8353 46.0211 26.2188H42.625C38.2753 26.2235 34.105 27.9536 31.0293 31.0293C27.9536 34.105 26.2235 38.2753 26.2188 42.625V46.0211C25.8353 46.1567 25.5032 46.4077 25.2682 46.7397C25.0331 47.0716 24.9067 47.4683 24.9062 47.875V50.5C24.9067 50.9067 25.0331 51.3034 25.2682 51.6353C25.5032 51.9673 25.8353 52.2183 26.2188 52.3539V57.0625C26.2188 57.2365 26.2879 57.4035 26.411 57.5265C26.534 57.6496 26.701 57.7188 26.875 57.7188C27.049 57.7188 27.216 57.6496 27.339 57.5265C27.4621 57.4035 27.5312 57.2365 27.5312 57.0625V52.4688H36.7188V57.0625C36.7188 57.2365 36.7879 57.4035 36.911 57.5265C37.034 57.6496 37.201 57.7188 37.375 57.7188C37.549 57.7188 37.716 57.6496 37.839 57.5265C37.9621 57.4035 38.0312 57.2365 38.0312 57.0625V52.3539C38.4147 52.2183 38.7468 51.9673 38.9818 51.6353C39.2169 51.3034 39.3433 50.9067 39.3438 50.5V47.875C39.3433 47.4683 39.2169 47.0716 38.9818 46.7397C38.7468 46.4077 38.4147 46.1567 38.0312 46.0211V42.625C38.0312 41.4067 38.5152 40.2382 39.3767 39.3767C40.2382 38.5152 41.4067 38.0312 42.625 38.0312H46.0211C46.1567 38.4147 46.4077 38.7468 46.7397 38.9818C47.0716 39.2169 47.4683 39.3433 47.875 39.3438H50.5C50.9067 39.3433 51.3034 39.2169 51.6353 38.9818C51.9673 38.7468 52.2183 38.4147 52.3539 38.0312H57.0625C57.2365 38.0312 57.4035 37.9621 57.5265 37.839C57.6496 37.716 57.7188 37.549 57.7188 37.375C57.7188 37.201 57.6496 37.034 57.5265 36.911C57.4035 36.7879 57.2365 36.7188 57.0625 36.7188ZM38.0312 50.5C38.0312 50.674 37.9621 50.841 37.839 50.964C37.716 51.0871 37.549 51.1562 37.375 51.1562H26.875C26.701 51.1562 26.534 51.0871 26.411 50.964C26.2879 50.841 26.2188 50.674 26.2188 50.5V47.875C26.2188 47.701 26.2879 47.534 26.411 47.411C26.534 47.2879 26.701 47.2188 26.875 47.2188H37.375C37.549 47.2188 37.716 47.2879 37.839 47.411C37.9621 47.534 38.0312 47.701 38.0312 47.875V50.5ZM36.7188 42.625V45.9062H27.5312V42.625C27.5356 38.6232 29.1272 34.7866 31.9569 31.9569C34.7866 29.1272 38.6232 27.5356 42.625 27.5312H45.9062V36.7188H42.625C41.0586 36.7188 39.5563 37.341 38.4487 38.4487C37.341 39.5563 36.7188 41.0586 36.7188 42.625ZM50.5 38.0312H47.875C47.701 38.0312 47.534 37.9621 47.411 37.839C47.2879 37.716 47.2188 37.549 47.2188 37.375V26.875C47.2188 26.701 47.2879 26.534 47.411 26.411C47.534 26.2879 47.701 26.2188 47.875 26.2188H50.5C50.674 26.2188 50.841 26.2879 50.964 26.411C51.0871 26.534 51.1562 26.701 51.1562 26.875V37.375C51.1562 37.549 51.0871 37.716 50.964 37.839C50.841 37.9621 50.674 38.0312 50.5 38.0312Z" fill="white"/>
</svg>
